<svg display="none" xmlns="http://www.w3.org/2000/svg">

   <symbol id="favorites" viewBox="0 0 21 18">
      <path d="M 20.17 7.678 C 19.751 9.247 18.776 10.721 17.412 11.851 L 10.441 17.484 L 10.205 17.29 L 3.586 11.849 C 2.222 10.719 1.249 9.246 0.83 7.678 C 0.553 6.557 0.634 5.882 0.66 5.719 C 0.818 4.27 1.477 2.965 2.437 2.074 C 3.398 1.182 4.75 0.625 6.173 0.625 C 8.036 0.625 9.433 1.413 10.451 2.66 C 11.487 1.429 12.937 0.625 14.827 0.625 C 16.25 0.625 17.602 1.182 18.563 2.074 C 19.523 2.965 20.179 4.276 20.34 5.72 C 20.363 5.849 20.447 6.557 20.17 7.678 Z M 10.442 3.991 C 10.443 3.989 10.443 3.988 10.444 3.987 L 10.444 3.987 Z M 10.449 3.991 L 10.446 3.984 L 10.446 3.984 C 10.447 3.986 10.448 3.989 10.449 3.991 Z M 18.875 5.924 C 18.773 4.762 18.296 3.822 17.558 3.12 C 16.821 2.419 15.915 2.037 14.827 2.037 C 13.172 2.037 11.755 2.878 11.122 4.308 L 10.786 5.03 L 10.446 5.76 L 9.769 4.307 C 9.123 2.853 7.786 2.037 6.173 2.037 C 5.086 2.037 4.178 2.419 3.442 3.116 C 2.705 3.815 2.231 4.734 2.131 5.879 L 2.123 5.937 C 2.12 5.957 2.012 6.428 2.268 7.337 C 2.602 8.662 3.373 9.822 4.553 10.779 L 10.45 15.626 L 16.452 10.776 C 17.629 9.821 18.398 8.662 18.732 7.338 C 18.988 6.428 18.878 5.939 18.875 5.924 Z"/>
   </symbol>

   <symbol id="search" viewBox="0 0 16 16">
      <path d="M15.8041 14.8638L11.9576 11.0172C12.911 9.85475 13.4857 8.36576 13.4857 6.74289C13.4857 3.02042 10.4653 0 6.74286 0C3.01714 0 0 3.02042 0 6.74289C0 10.4654 3.01714 13.4858 6.74286 13.4858C8.36571 13.4858 9.85143 12.9144 11.0139 11.9609L14.8604 15.8042C15.1216 16.0654 15.5429 16.0654 15.8041 15.8042C16.0653 15.5462 16.0653 15.1217 15.8041 14.8638ZM6.74286 12.1437C3.76163 12.1437 1.33878 9.72087 1.33878 6.74289C1.33878 3.76492 3.76163 1.33878 6.74286 1.33878C9.72082 1.33878 12.1469 3.76492 12.1469 6.74289C12.1469 9.72087 9.72082 12.1437 6.74286 12.1437Z"/>
   </symbol>

   <symbol id="shopping-cart" viewBox="0 0 18 16">
      <path d="M17.8961 3.05166C17.7931 2.91219 17.6273 2.82598 17.4472 2.81871L6.28162 2.36415C5.96126 2.35091 5.69355 2.58451 5.67986 2.88567C5.66624 3.18672 5.91317 3.44109 6.232 3.45403L16.6416 3.87785L14.5949 9.90927H5.48658L3.84103 1.44689C3.80486 1.26142 3.67004 1.10669 3.4841 1.03779L0.788965 0.037775C0.491928 -0.072061 0.156743 0.065738 0.0400874 0.345939C-0.0763672 0.626293 0.0694931 0.943056 0.36637 1.05323L2.76277 1.94238L4.43736 10.5533C4.48784 10.8122 4.72671 11.0002 5.0055 11.0002H5.28328L4.64896 12.6643C4.59587 12.8037 4.61775 12.9585 4.7081 13.0796C4.79833 13.2007 4.94508 13.2728 5.10173 13.2728H5.54664C5.27095 13.5625 5.10173 13.9441 5.10173 14.3637C5.10173 15.266 5.87913 16.0001 6.83433 16.0001C7.78953 16.0001 8.56693 15.266 8.56693 14.3637C8.56693 13.9441 8.39771 13.5625 8.12206 13.2728H11.8996C11.6237 13.5625 11.4546 13.9441 11.4546 14.3637C11.4546 15.266 12.2318 16.0001 13.1872 16.0001C14.1426 16.0001 14.9198 15.266 14.9198 14.3637C14.9198 13.9441 14.7506 13.5625 14.475 13.2728H15.016C15.2819 13.2728 15.4973 13.0693 15.4973 12.8182C15.4973 12.5671 15.2819 12.3637 15.016 12.3637H5.78652L6.30624 11H15.016C15.2672 11 15.4894 10.8468 15.5659 10.6211L17.9723 3.53C18.0275 3.36816 17.9992 3.19121 17.8961 3.05166ZM6.83437 15.0912C6.40968 15.0912 6.0643 14.765 6.0643 14.3639C6.0643 13.9628 6.40968 13.6366 6.83437 13.6366C7.25906 13.6366 7.6044 13.9628 7.6044 14.3639C7.6044 14.765 7.25906 15.0912 6.83437 15.0912ZM13.1872 15.0912C12.7625 15.0912 12.4171 14.765 12.4171 14.3639C12.4171 13.9628 12.7625 13.6366 13.1872 13.6366C13.6119 13.6366 13.9572 13.9628 13.9572 14.3639C13.9572 14.765 13.6119 15.0912 13.1872 15.0912Z"/>
   </symbol>
   
</svg>