<?xml version="1.0" encoding="utf-8"?>
<svg viewBox="0 0 10 13" width="10" height="13" fill="none" xmlns="http://www.w3.org/2000/svg">
  <path d="M 2 0.001 L 2 13.001 M 0.31 9.696 L 6.8100000000000005 9.696 M 2.048 0.501 L 6.036 0.501 C 7.725 0.501 9.095 1.871 9.095 3.56 C 9.095 5.25 7.725 6.62 6.036 6.62 L 2.048 6.62 L 2.048 0.501 Z M 2 6.501 L 0 6.501" style="paint-order: fill; fill-opacity: 0; fill: rgb(99, 103, 85);"/>
  <path d="M 2.5 9.196 L 6.81 9.196 L 6.81 10.196 L 2.5 10.196 L 2.5 13.001 L 1.5 13.001 L 1.5 10.196 L 0.31 10.196 L 0.31 9.196 L 1.5 9.196 L 1.5 7.001 L 0 7.001 L 0 6.001 L 1.5 6.001 L 1.5 0.001 L 6.036 0.001 C 6.983 0.023 7.936 0.427 8.552 1.044 C 9.169 1.66 9.595 2.613 9.595 3.56 C 9.595 4.507 9.169 5.461 8.552 6.077 C 7.936 6.694 6.983 7.098 6.036 7.12 L 2.5 7.12 Z M 2.548 6.12 L 6.036 6.12 C 6.778 6.142 7.355 5.861 7.845 5.37 C 8.336 4.879 8.595 4.303 8.595 3.56 C 8.595 2.818 8.336 2.241 7.845 1.751 C 7.355 1.26 6.778 0.979 6.036 1.001 L 2.548 1.001 Z" style="fill: rgb(0, 0, 0);"/>
</svg>